<svg width="220" height="48" viewBox="0 0 220 48" fill="none" xmlns="http://www.w3.org/2000/svg">
<path d="M0 8C0 3.58172 3.58172 0 8 0H212C216.418 0 220 3.58172 220 8V40C220 44.4183 216.418 48 212 48H8.00001C3.58173 48 0 44.4183 0 40V8Z" fill="#070E20"/>
<path d="M0 8C0 3.58172 3.58172 0 8 0H212C216.418 0 220 3.58172 220 8V40C220 44.4183 216.418 48 212 48H8.00001C3.58173 48 0 44.4183 0 40V8Z" fill="white" fill-opacity="0.07"/>
<path d="M8 0.5H212C216.142 0.5 219.5 3.85786 219.5 8V40C219.5 44.1421 216.142 47.5 212 47.5H8C3.85787 47.5 0.5 44.1421 0.5 40V8C0.500001 3.85786 3.85787 0.5 8 0.5Z" stroke="white" stroke-opacity="0.08"/>
<path d="M33.7159 24.454C33.7316 23.3041 34.057 22.1766 34.6617 21.1765C35.2663 20.1764 36.1307 19.3361 37.1742 18.7338C36.5113 17.845 35.6367 17.1136 34.6199 16.5976C33.6032 16.0815 32.4723 15.7952 31.317 15.7613C28.8526 15.5185 26.4635 17.1456 25.2077 17.1456C23.9276 17.1456 21.9941 15.7854 19.912 15.8256C18.5653 15.8664 17.2528 16.2341 16.1024 16.8927C14.952 17.5513 14.003 18.4784 13.3478 19.5837C10.5095 24.1967 12.6266 30.9762 15.3454 34.705C16.7057 36.5309 18.2955 38.5705 20.3757 38.4981C22.4112 38.4189 23.1715 37.2796 25.6286 37.2796C28.0629 37.2796 28.7762 38.4981 30.8986 38.4522C33.0829 38.4189 34.4591 36.6182 35.7716 34.775C36.749 33.474 37.5011 32.0361 38 30.5145C36.731 30.0107 35.6481 29.1673 34.8862 28.0896C34.1244 27.0118 33.7173 25.7474 33.7159 24.454Z" fill="white"/>
<path d="M29.7071 13.3089C30.8981 11.9668 31.4848 10.2417 31.3427 8.5C29.5232 8.6794 27.8425 9.49575 26.6354 10.7864C26.0453 11.4169 25.5933 12.1504 25.3053 12.945C25.0173 13.7396 24.8989 14.5797 24.957 15.4172C25.8671 15.426 26.7674 15.2409 27.5902 14.8757C28.413 14.5105 29.1368 13.9748 29.7071 13.3089Z" fill="white"/>
<path d="M48.9159 8.86985C49.443 8.83467 49.972 8.90873 50.4646 9.08668C50.9572 9.26463 51.4012 9.54203 51.7646 9.89889C52.128 10.2557 52.4017 10.6832 52.566 11.1503C52.7302 11.6174 52.7809 12.1126 52.7145 12.6002C52.7145 14.9986 51.3206 16.3773 48.9159 16.3773H45.9999V8.86985H48.9159ZM47.2537 15.3156H48.7758C49.1525 15.3365 49.5294 15.2791 49.8792 15.1475C50.229 15.0158 50.5429 14.8133 50.7979 14.5547C51.0529 14.296 51.2427 13.9878 51.3535 13.6523C51.4642 13.3169 51.4931 12.9627 51.4381 12.6155C51.4891 12.2697 51.4573 11.9177 51.3448 11.5847C51.2324 11.2517 51.0421 10.9459 50.7877 10.6894C50.5332 10.4328 50.2209 10.2317 49.8731 10.1006C49.5253 9.96941 49.1506 9.91143 48.7758 9.93077H47.2537V15.3156Z" fill="white"/>
<path d="M54.1307 13.5419C54.0924 13.1696 54.1382 12.7939 54.2651 12.439C54.3921 12.0841 54.5974 11.7578 54.8679 11.4811C55.1384 11.2043 55.4682 10.9831 55.836 10.8318C56.2038 10.6805 56.6015 10.6023 57.0037 10.6023C57.4059 10.6023 57.8037 10.6805 58.1715 10.8318C58.5393 10.9831 58.869 11.2043 59.1395 11.4811C59.41 11.7578 59.6154 12.0841 59.7423 12.439C59.8693 12.7939 59.9151 13.1696 59.8768 13.5419C59.9158 13.9146 59.8706 14.2908 59.7439 14.6463C59.6173 15.0017 59.4121 15.3286 59.1415 15.606C58.8709 15.8833 58.541 16.1049 58.1728 16.2566C57.8046 16.4082 57.4064 16.4866 57.0037 16.4866C56.6011 16.4866 56.2028 16.4082 55.8347 16.2566C55.4665 16.1049 55.1365 15.8833 54.8659 15.606C54.5953 15.3286 54.3901 15.0017 54.2635 14.6463C54.1369 14.2908 54.0916 13.9146 54.1307 13.5419ZM58.6401 13.5419C58.6401 12.3138 58.0468 11.5957 57.0057 11.5957C55.9606 11.5957 55.3727 12.3138 55.3727 13.5419C55.3727 14.7798 55.9606 15.4925 57.0057 15.4925C58.0469 15.4925 58.6401 14.7749 58.6401 13.5419H58.6401Z" fill="white"/>
<path d="M67.5152 16.3772H66.2679L65.0088 12.2045H64.9137L63.6598 16.3772H62.4244L60.7451 10.7117H61.9646L63.056 15.0348H63.1458L64.3984 10.7117H65.5518L66.8044 15.0348H66.8995L67.9856 10.7117H69.1879L67.5152 16.3772Z" fill="white"/>
<path d="M70.6002 10.7117H71.7576V11.6118H71.8475C71.9999 11.2885 72.257 11.0175 72.5829 10.8366C72.9087 10.6557 73.2872 10.5738 73.6655 10.6024C73.962 10.5817 74.2596 10.6232 74.5364 10.724C74.8132 10.8248 75.0621 10.9822 75.2646 11.1845C75.4671 11.3869 75.6181 11.6291 75.7063 11.8931C75.7945 12.1571 75.8177 12.4361 75.7742 12.7096V16.3772H74.5719V12.9904C74.5719 12.0799 74.1465 11.6271 73.2573 11.6271C73.056 11.6184 72.8551 11.6503 72.6683 11.7205C72.4815 11.7908 72.3133 11.8977 72.1751 12.0341C72.0369 12.1705 71.9321 12.333 71.8678 12.5106C71.8035 12.6881 71.7812 12.8765 71.8026 13.0629V16.3773H70.6002L70.6002 10.7117Z" fill="white"/>
<path d="M77.6902 8.5H78.8933V16.3772H77.6902V8.5Z" fill="white"/>
<path d="M80.5636 13.542C80.5253 13.1697 80.5712 12.794 80.6982 12.4391C80.8251 12.0842 81.0305 11.7579 81.301 11.4811C81.5716 11.2043 81.9014 10.9831 82.2692 10.8318C82.637 10.6805 83.0348 10.6023 83.437 10.6023C83.8392 10.6023 84.237 10.6805 84.6048 10.8318C84.9727 10.9831 85.3024 11.2043 85.573 11.4811C85.8435 11.7579 86.0489 12.0842 86.1758 12.4391C86.3028 12.794 86.3487 13.1697 86.3104 13.542C86.3494 13.9147 86.3041 14.2909 86.1774 14.6464C86.0508 15.0019 85.8455 15.3288 85.5749 15.6061C85.3043 15.8834 84.9743 16.105 84.6061 16.2566C84.2379 16.4083 83.8397 16.4866 83.437 16.4866C83.0343 16.4866 82.6361 16.4083 82.2679 16.2566C81.8997 16.105 81.5697 15.8834 81.2991 15.6061C81.0285 15.3288 80.8233 15.0019 80.6966 14.6464C80.5699 14.2909 80.5246 13.9147 80.5636 13.542ZM85.073 13.542C85.073 12.3139 84.4798 11.5958 83.4387 11.5958C82.3935 11.5958 81.8056 12.3139 81.8056 13.542C81.8056 14.78 82.3936 15.4926 83.4387 15.4926C84.4798 15.4926 85.073 14.775 85.073 13.542H85.073Z" fill="white"/>
<path d="M87.5764 14.775C87.5764 13.7551 88.393 13.1672 89.8424 13.0837L91.4926 12.9952V12.5062C91.4926 11.9078 91.0672 11.5699 90.2454 11.5699C89.5742 11.5699 89.1091 11.7991 88.9756 12.1996H87.8116C87.9345 11.2265 88.9188 10.6023 90.3008 10.6023C91.8282 10.6023 92.6897 11.3094 92.6897 12.5062V16.3772H91.5323V15.581H91.4371C91.244 15.8666 90.9729 16.0994 90.6514 16.2557C90.3299 16.412 89.9696 16.4861 89.6072 16.4705C89.3514 16.4953 89.0929 16.4699 88.8484 16.3961C88.6038 16.3222 88.3786 16.2015 88.1873 16.0418C87.9959 15.882 87.8427 15.6867 87.7375 15.4686C87.6323 15.2504 87.5774 15.0141 87.5764 14.775ZM91.4926 14.2909V13.8172L90.0049 13.9057C89.1659 13.9579 88.7854 14.2233 88.7854 14.7227C88.7854 15.2326 89.261 15.5294 89.9151 15.5294C90.1067 15.5474 90.3003 15.5294 90.4843 15.4765C90.6683 15.4235 90.839 15.3367 90.9862 15.2211C91.1334 15.1056 91.2541 14.9637 91.3411 14.8038C91.4281 14.644 91.4796 14.4696 91.4926 14.2909Z" fill="white"/>
<path d="M94.27 13.542C94.27 11.7518 95.2596 10.6177 96.7989 10.6177C97.1796 10.6014 97.5575 10.6862 97.8884 10.8622C98.2192 11.0382 98.4893 11.2982 98.6672 11.6117H98.757V8.5H99.9593V16.3772H98.8072V15.4821H98.7121C98.5205 15.7935 98.241 16.0502 97.9037 16.2245C97.5665 16.3987 97.1844 16.4838 96.7989 16.4706C95.2491 16.4707 94.27 15.3365 94.27 13.542ZM95.512 13.542C95.512 14.7437 96.1211 15.4668 97.1398 15.4668C98.1532 15.4668 98.7795 14.7333 98.7795 13.5469C98.7795 12.3661 98.1466 11.6222 97.1398 11.6222C96.1277 11.6222 95.512 12.3502 95.512 13.542H95.512Z" fill="white"/>
<path d="M104.934 13.5419C104.896 13.1696 104.941 12.7939 105.068 12.439C105.195 12.0841 105.401 11.7578 105.671 11.4811C105.942 11.2043 106.271 10.9831 106.639 10.8318C107.007 10.6805 107.405 10.6023 107.807 10.6023C108.209 10.6023 108.607 10.6805 108.975 10.8318C109.342 10.9831 109.672 11.2043 109.943 11.4811C110.213 11.7578 110.419 12.0841 110.546 12.439C110.672 12.7939 110.718 13.1696 110.68 13.5419C110.719 13.9146 110.674 14.2908 110.547 14.6463C110.421 15.0017 110.215 15.3286 109.945 15.606C109.674 15.8833 109.344 16.1049 108.976 16.2566C108.608 16.4082 108.21 16.4866 107.807 16.4866C107.404 16.4866 107.006 16.4082 106.638 16.2566C106.27 16.1049 105.94 15.8833 105.669 15.606C105.399 15.3286 105.193 15.0017 105.067 14.6463C104.94 14.2908 104.895 13.9146 104.934 13.5419ZM109.443 13.5419C109.443 12.3138 108.85 11.5957 107.809 11.5957C106.764 11.5957 106.176 12.3138 106.176 13.5419C106.176 14.7798 106.764 15.4925 107.809 15.4925C108.85 15.4925 109.443 14.7749 109.443 13.5419Z" fill="white"/>
<path d="M112.293 10.7117H113.45V11.6118H113.54C113.693 11.2885 113.95 11.0175 114.275 10.8366C114.601 10.6557 114.98 10.5738 115.358 10.6024C115.655 10.5817 115.952 10.6232 116.229 10.724C116.506 10.8248 116.755 10.9822 116.957 11.1845C117.16 11.3869 117.311 11.6291 117.399 11.8931C117.487 12.1571 117.51 12.4361 117.467 12.7096V16.3772H116.265V12.9904C116.265 12.0799 115.839 11.6271 114.95 11.6271C114.749 11.6184 114.548 11.6503 114.361 11.7205C114.174 11.7908 114.006 11.8977 113.868 12.0341C113.73 12.1705 113.625 12.333 113.56 12.5106C113.496 12.6881 113.474 12.8765 113.495 13.0629V16.3773H112.293V10.7117Z" fill="white"/>
<path d="M124.261 9.30115V10.7375H125.581V11.6793H124.261V14.5926C124.261 15.186 124.524 15.4459 125.123 15.4459C125.276 15.4454 125.429 15.4368 125.581 15.4201V16.3514C125.365 16.3874 125.146 16.4065 124.927 16.4086C123.59 16.4086 123.057 15.9712 123.057 14.8788V11.6793H122.09V10.7375H123.057V9.30115H124.261Z" fill="white"/>
<path d="M127.223 8.5H128.415V11.6221H128.51C128.67 11.2959 128.934 11.0234 129.267 10.8417C129.599 10.6601 129.984 10.5782 130.368 10.6072C130.663 10.5923 130.957 10.6381 131.231 10.7413C131.505 10.8445 131.751 11.0027 131.951 11.2044C132.151 11.4061 132.301 11.6465 132.39 11.9084C132.48 12.1703 132.505 12.4472 132.466 12.7194V16.3772H131.262V12.9952C131.262 12.0903 130.809 11.632 129.96 11.632C129.753 11.6162 129.545 11.6426 129.351 11.7094C129.156 11.7761 128.98 11.8816 128.833 12.0184C128.687 12.1552 128.575 12.3201 128.505 12.5014C128.434 12.6828 128.407 12.8762 128.426 13.0683V16.3772H127.223L127.223 8.5Z" fill="white"/>
<path d="M139.477 14.8476C139.313 15.3654 138.959 15.8133 138.477 16.1129C137.994 16.4125 137.414 16.5448 136.837 16.4866C136.435 16.4965 136.036 16.425 135.668 16.2771C135.299 16.1293 134.969 15.9085 134.702 15.6303C134.434 15.3521 134.234 15.023 134.117 14.6659C134 14.3088 133.968 13.9322 134.022 13.5623C133.969 13.1913 134.002 12.8139 134.119 12.4558C134.236 12.0976 134.434 11.767 134.701 11.4863C134.967 11.2056 135.295 10.9815 135.663 10.829C136.03 10.6765 136.429 10.5992 136.831 10.6024C138.527 10.6024 139.549 11.6794 139.549 13.4585V13.8486H135.247V13.9113C135.228 14.1192 135.257 14.3285 135.33 14.5257C135.403 14.7229 135.52 14.9037 135.672 15.0566C135.825 15.2094 136.011 15.3308 136.217 15.4131C136.423 15.4954 136.645 15.5367 136.87 15.5344C137.157 15.5665 137.449 15.5183 137.707 15.396C137.965 15.2737 138.178 15.0828 138.319 14.8475L139.477 14.8476ZM135.247 13.0217H138.324C138.34 12.8316 138.312 12.6406 138.243 12.461C138.174 12.2814 138.065 12.1173 137.924 11.979C137.783 11.8408 137.612 11.7316 137.423 11.6584C137.233 11.5852 137.03 11.5497 136.825 11.554C136.617 11.5516 136.41 11.5879 136.218 11.6608C136.025 11.7337 135.85 11.8417 135.703 11.9785C135.556 12.1153 135.44 12.2781 135.362 12.4572C135.283 12.6364 135.245 12.8283 135.247 13.0217H135.247Z" fill="white"/>
<path d="M55.579 31.7741H49.8214L48.4387 35.8568H46L51.4535 20.7518H53.9873L59.4408 35.8568H56.9605L55.579 31.7741ZM50.4176 29.8901H54.9815L52.7317 23.2642H52.6687L50.4176 29.8901Z" fill="white"/>
<path d="M71.2184 30.3511C71.2184 33.7733 69.3867 35.9721 66.6225 35.9721C65.9223 36.0087 65.2259 35.8474 64.6131 35.5066C64.0003 35.1659 63.4959 34.6595 63.1575 34.0453H63.1052V39.5H60.8447V24.8441H63.0328V26.6758H63.0744C63.4283 26.0647 63.9413 25.5609 64.5587 25.218C65.1762 24.8752 65.8751 24.7062 66.581 24.729C69.376 24.7289 71.2184 26.9383 71.2184 30.3511ZM68.8949 30.3511C68.8949 28.1214 67.7427 26.6556 65.9846 26.6556C64.2575 26.6556 63.0958 28.1523 63.0958 30.3511C63.0958 32.57 64.2575 34.056 65.9846 34.056C67.7427 34.056 68.8949 32.6009 68.8949 30.3511Z" fill="white"/>
<path d="M83.3399 30.3511C83.3399 33.7733 81.5077 35.9721 78.7435 35.9721C78.0433 36.0087 77.3469 35.8474 76.7341 35.5066C76.1213 35.1659 75.6168 34.6595 75.2785 34.0453H75.2262V39.5H72.9657V24.8441H75.1538V26.6758H75.1953C75.5493 26.0647 76.0622 25.5609 76.6797 25.218C77.2972 24.8752 77.996 24.7062 78.7019 24.729C81.497 24.7289 83.3399 26.9383 83.3399 30.3511ZM81.0159 30.3511C81.0159 28.1214 79.8636 26.6556 78.1056 26.6556C76.3784 26.6556 75.2167 28.1523 75.2167 30.3511C75.2167 32.57 76.3784 34.056 78.1056 34.056C79.8636 34.056 81.0159 32.6009 81.0159 30.3511Z" fill="white"/>
<path d="M91.35 31.6482C91.5175 33.1461 92.9726 34.1296 94.9611 34.1296C96.8664 34.1296 98.2372 33.1461 98.2372 31.7955C98.2372 30.6231 97.4105 29.9211 95.4529 29.4399L93.4953 28.9683C90.7216 28.2984 89.434 27.0012 89.434 24.8963C89.434 22.29 91.7052 20.5 94.929 20.5C98.122 20.5 100.31 22.2901 100.384 24.8963H98.1018C97.9652 23.3889 96.7191 22.479 94.8982 22.479C93.0772 22.479 91.8311 23.3997 91.8311 24.7396C91.8311 25.8075 92.6269 26.4359 94.5739 26.9169L96.2381 27.3256C99.3372 28.0585 100.624 29.3034 100.624 31.5128C100.624 34.3387 98.3739 36.1087 94.7936 36.1087C91.4438 36.1087 89.1821 34.3803 89.036 31.6482L91.35 31.6482Z" fill="white"/>
<path d="M105.504 22.2378V24.844H107.599V26.6341H105.504V32.7053C105.504 33.6485 105.924 34.088 106.844 34.088C107.093 34.0837 107.341 34.0663 107.588 34.0358V35.8152C107.174 35.8925 106.753 35.9276 106.332 35.9197C104.103 35.9197 103.233 35.0823 103.233 32.9465V26.6341H101.632V24.8439H103.233V22.2377L105.504 22.2378Z" fill="white"/>
<path d="M108.81 30.351C108.81 26.886 110.851 24.7086 114.033 24.7086C117.226 24.7086 119.257 26.886 119.257 30.351C119.257 33.8255 117.237 35.9934 114.033 35.9934C110.831 35.9934 108.81 33.8255 108.81 30.351ZM116.954 30.351C116.954 27.9741 115.865 26.5712 114.033 26.5712C112.202 26.5712 111.112 27.9848 111.112 30.351C111.112 32.7374 112.202 34.1296 114.033 34.1296C115.865 34.1296 116.954 32.7374 116.954 30.351Z" fill="white"/>
<path d="M121.121 24.844H123.277V26.7184H123.33C123.475 26.133 123.818 25.6156 124.301 25.2533C124.783 24.8909 125.376 24.7057 125.978 24.7287C126.239 24.7278 126.499 24.7561 126.753 24.8131V26.9275C126.424 26.827 126.081 26.7808 125.737 26.7909C125.409 26.7775 125.082 26.8354 124.778 26.9606C124.474 27.0857 124.2 27.2752 123.977 27.5159C123.753 27.7566 123.584 28.0429 123.481 28.3551C123.378 28.6673 123.345 28.9981 123.382 29.3246V35.8567H121.121V24.844Z" fill="white"/>
<path d="M137.175 32.6222C136.927 33.6629 136.309 34.5782 135.437 35.1981C134.565 35.8181 133.498 36.1006 132.433 35.9934C129.23 35.9934 127.241 33.8469 127.241 30.4033C127.241 26.9489 129.24 24.7086 132.338 24.7086C135.385 24.7086 137.301 26.8016 137.301 30.1407V30.9152H129.523V31.0518C129.487 31.4571 129.538 31.8654 129.672 32.2496C129.806 32.6338 130.02 32.9851 130.3 33.2801C130.581 33.5751 130.92 33.8072 131.297 33.9608C131.674 34.1144 132.079 34.1862 132.486 34.1712C133.02 34.2212 133.556 34.0975 134.014 33.8184C134.472 33.5394 134.828 33.1198 135.029 32.6222L137.175 32.6222ZM129.534 29.3354H135.04C135.06 28.9709 135.005 28.6063 134.877 28.2642C134.75 27.9221 134.553 27.6101 134.3 27.3476C134.046 27.0852 133.741 26.878 133.403 26.7391C133.066 26.6001 132.703 26.5325 132.338 26.5403C131.97 26.5381 131.605 26.6088 131.265 26.7484C130.924 26.888 130.614 27.0936 130.354 27.3535C130.093 27.6133 129.886 27.9223 129.746 28.2624C129.605 28.6026 129.533 28.9672 129.534 29.3354Z" fill="white"/>
<rect opacity="0.08" x="159.222" y="8" width="1" height="32" fill="white"/>
<path d="M180.722 31.5V31.515M180.722 16.5V16.515M195.722 16.5V16.515M195.722 27H191.222V31.5M200.222 27V27.015M191.222 36H195.722M195.722 31.5H200.222V36M176.222 13.5C176.222 13.1022 176.38 12.7206 176.661 12.4393C176.943 12.158 177.324 12 177.722 12H183.722C184.12 12 184.501 12.158 184.783 12.4393C185.064 12.7206 185.222 13.1022 185.222 13.5V19.5C185.222 19.8978 185.064 20.2794 184.783 20.5607C184.501 20.842 184.12 21 183.722 21H177.722C177.324 21 176.943 20.842 176.661 20.5607C176.38 20.2794 176.222 19.8978 176.222 19.5V13.5ZM191.222 13.5C191.222 13.1022 191.38 12.7206 191.661 12.4393C191.943 12.158 192.324 12 192.722 12H198.722C199.12 12 199.501 12.158 199.783 12.4393C200.064 12.7206 200.222 13.1022 200.222 13.5V19.5C200.222 19.8978 200.064 20.2794 199.783 20.5607C199.501 20.842 199.12 21 198.722 21H192.722C192.324 21 191.943 20.842 191.661 20.5607C191.38 20.2794 191.222 19.8978 191.222 19.5V13.5ZM176.222 28.5C176.222 28.1022 176.38 27.7206 176.661 27.4393C176.943 27.158 177.324 27 177.722 27H183.722C184.12 27 184.501 27.158 184.783 27.4393C185.064 27.7206 185.222 28.1022 185.222 28.5V34.5C185.222 34.8978 185.064 35.2794 184.783 35.5607C184.501 35.842 184.12 36 183.722 36H177.722C177.324 36 176.943 35.842 176.661 35.5607C176.38 35.2794 176.222 34.8978 176.222 34.5V28.5Z" stroke="white" stroke-width="1.5" stroke-linecap="round" stroke-linejoin="round"/>
</svg>
