<svg width="220" height="48" viewBox="0 0 220 48" fill="none" xmlns="http://www.w3.org/2000/svg">
<path d="M0 8C0 3.58172 3.58172 0 8 0H212C216.418 0 220 3.58172 220 8V40C220 44.4183 216.418 48 212 48H8.00001C3.58173 48 0 44.4183 0 40V8Z" fill="#070E20"/>
<path d="M0 8C0 3.58172 3.58172 0 8 0H212C216.418 0 220 3.58172 220 8V40C220 44.4183 216.418 48 212 48H8.00001C3.58173 48 0 44.4183 0 40V8Z" fill="white" fill-opacity="0.07"/>
<path d="M8 0.5H212C216.142 0.5 219.5 3.85786 219.5 8V40C219.5 44.1421 216.142 47.5 212 47.5H8C3.85787 47.5 0.5 44.1421 0.5 40V8C0.500001 3.85786 3.85787 0.5 8 0.5Z" stroke="white" stroke-opacity="0.08"/>
<path d="M25.0619 23.2843L12.1201 37.3488C12.5215 38.8798 13.8838 39.9999 15.5015 39.9999C16.1462 39.9999 16.7544 39.8257 17.2774 39.5021L17.3139 39.4772L31.8856 30.8767L25.0619 23.2719V23.2843Z" fill="#EA4335"/>
<path d="M38.1755 20.8946H38.1634L31.8749 17.1482L24.7837 23.6079L31.8993 30.8891L38.1634 27.1925C39.2581 26.5826 40.0001 25.4002 40.0001 24.0436C40.0001 22.6869 39.2702 21.5045 38.1755 20.907V20.8946Z" fill="#FBBC04"/>
<path d="M12.1216 10.6636C12.0487 10.9623 12 11.261 12 11.5846V36.4403C12 36.7639 12.0365 37.0626 12.1216 37.3613L25.5135 23.6577L12.1216 10.6636Z" fill="#4285F4"/>
<path d="M25.1595 24.0062L31.8615 17.1482L17.302 8.51031C16.7789 8.1867 16.1586 8 15.4896 8C13.884 8 12.5096 9.13263 12.1204 10.6511L25.1716 23.9938L25.1595 24.0062Z" fill="#34A853"/>
<path d="M54.8042 11.5239C54.8042 12.3782 54.5774 13.1257 54.0104 13.6596C53.33 14.3003 52.5362 14.6207 51.5156 14.6207C50.495 14.6207 49.7012 14.3003 49.0207 13.6596C48.3403 13.0189 48.0001 12.2714 48.0001 11.3103C48.0001 10.3493 48.3403 9.60178 49.0207 8.96107C49.7012 8.32036 50.495 8 51.5156 8C51.9692 8 52.4228 8.10679 52.8764 8.32036C53.33 8.53393 53.6702 8.7475 53.897 9.06785L53.33 9.60178C52.8764 9.06785 52.3094 8.85428 51.5156 8.85428C50.8352 8.85428 50.1548 9.06785 49.7012 9.60178C49.1341 10.0289 48.9073 10.6696 48.9073 11.4171C48.9073 12.1646 49.1341 12.8053 49.7012 13.2325C50.2682 13.6596 50.8352 13.98 51.5156 13.98C52.3094 13.98 52.8764 13.7664 53.4434 13.2325C53.7836 12.9121 54.0104 12.485 54.0104 11.9511H51.5156V11.0968H54.8042C54.8042 11.2036 54.8042 11.4171 54.8042 11.5239Z" fill="white" stroke="white" stroke-width="0.2" stroke-miterlimit="10"/>
<path d="M60.0207 8.85419H56.9589V10.8831H59.7939V11.6306H56.9589V13.6595H60.0207V14.5138H56.0516V8.10669H60.0207V8.85419Z" fill="white" stroke="white" stroke-width="0.2" stroke-miterlimit="10"/>
<path d="M63.7628 14.5138H62.8556V8.85419H60.9277V8.10669H65.6906V8.85419H63.7628V14.5138Z" fill="white" stroke="white" stroke-width="0.2" stroke-miterlimit="10"/>
<path d="M68.9799 14.5138V8.10669H69.8871V14.5138H68.9799Z" fill="white" stroke="white" stroke-width="0.2" stroke-miterlimit="10"/>
<path d="M73.7423 14.5138H72.8351V8.85419H70.9072V8.10669H75.5567V8.85419H73.6289V14.5138H73.7423Z" fill="white" stroke="white" stroke-width="0.2" stroke-miterlimit="10"/>
<path d="M84.5153 13.6596C83.8349 14.3003 83.0411 14.6207 82.0205 14.6207C80.9998 14.6207 80.206 14.3003 79.5256 13.6596C78.8452 13.0189 78.505 12.2714 78.505 11.3103C78.505 10.3493 78.8452 9.60178 79.5256 8.96107C80.206 8.32036 80.9998 8 82.0205 8C83.0411 8 83.8349 8.32036 84.5153 8.96107C85.1957 9.60178 85.5359 10.3493 85.5359 11.3103C85.5359 12.2714 85.1957 13.0189 84.5153 13.6596ZM80.206 13.1257C80.6596 13.5528 81.3401 13.8732 82.0205 13.8732C82.7009 13.8732 83.3813 13.6596 83.8349 13.1257C84.2885 12.6986 84.6287 12.0578 84.6287 11.3103C84.6287 10.5628 84.4019 9.92214 83.8349 9.49499C83.3813 9.06785 82.7009 8.7475 82.0205 8.7475C81.3401 8.7475 80.6596 8.96107 80.206 9.49499C79.7524 9.92214 79.4122 10.5628 79.4122 11.3103C79.4122 12.0578 79.639 12.6986 80.206 13.1257Z" fill="white" stroke="white" stroke-width="0.2" stroke-miterlimit="10"/>
<path d="M86.7836 14.5138V8.10669H87.8042L91.0929 13.1256V11.8442V8.10669H92.0001V14.5138H91.0929L87.5774 9.28133V10.5628V14.5138H86.7836Z" fill="white" stroke="white" stroke-width="0.2" stroke-miterlimit="10"/>
<path d="M79.5957 25.6617C76.7872 25.6617 74.5638 27.7772 74.5638 30.7154C74.5638 33.536 76.7872 35.769 79.5957 35.769C82.4043 35.769 84.6277 33.6536 84.6277 30.7154C84.6277 27.6597 82.4043 25.6617 79.5957 25.6617ZM79.5957 33.6536C78.0745 33.6536 76.7872 32.3608 76.7872 30.5978C76.7872 28.8349 78.0745 27.5421 79.5957 27.5421C81.117 27.5421 82.4043 28.7174 82.4043 30.5978C82.4043 32.3608 81.117 33.6536 79.5957 33.6536ZM68.7128 25.6617C65.9043 25.6617 63.6809 27.7772 63.6809 30.7154C63.6809 33.536 65.9043 35.769 68.7128 35.769C71.5213 35.769 73.7447 33.6536 73.7447 30.7154C73.7447 27.6597 71.5213 25.6617 68.7128 25.6617ZM68.7128 33.6536C67.1915 33.6536 65.9043 32.3608 65.9043 30.5978C65.9043 28.8349 67.1915 27.5421 68.7128 27.5421C70.234 27.5421 71.5213 28.7174 71.5213 30.5978C71.5213 32.3608 70.234 33.6536 68.7128 33.6536ZM55.7234 27.1896V29.305H60.7553C60.6383 30.4803 60.1702 31.4205 59.5851 32.0082C58.883 32.7133 57.7128 33.536 55.7234 33.536C52.5638 33.536 50.2234 31.068 50.2234 27.8947C50.2234 24.7215 52.6809 22.2534 55.7234 22.2534C57.3617 22.2534 58.6489 22.9586 59.5851 23.7813L61.1064 22.2534C59.8191 21.0782 58.1809 20.1379 55.8404 20.1379C51.6277 20.1379 48 23.6638 48 27.8947C48 32.1257 51.6277 35.6515 55.8404 35.6515C58.1809 35.6515 59.8192 34.9463 61.2234 33.4185C62.6277 32.0082 63.0957 30.0102 63.0957 28.4824C63.0957 28.0123 63.0957 27.5421 62.9787 27.1896H55.7234ZM108.851 28.8349C108.383 27.6597 107.213 25.6617 104.638 25.6617C102.064 25.6617 99.9574 27.6597 99.9574 30.7154C99.9574 33.536 102.064 35.769 104.872 35.769C107.096 35.769 108.5 34.3587 108.968 33.536L107.33 32.3608C106.745 33.1834 106.043 33.7711 104.872 33.7711C103.702 33.7711 103 33.301 102.415 32.2432L109.085 29.4226L108.851 28.8349ZM102.064 30.4803C102.064 28.5999 103.585 27.5421 104.638 27.5421C105.457 27.5421 106.277 28.0123 106.511 28.5999L102.064 30.4803ZM96.5638 35.2989H98.7872V20.608H96.5638V35.2989ZM93.0532 26.7195C92.4681 26.1318 91.5319 25.5442 90.3617 25.5442C87.9043 25.5442 85.5638 27.7772 85.5638 30.5978C85.5638 33.4185 87.7872 35.534 90.3617 35.534C91.5319 35.534 92.4681 34.9463 92.9362 34.3587H93.0532V35.0639C93.0532 36.9443 92 38.0021 90.3617 38.0021C89.0745 38.0021 88.1383 37.0618 87.9043 36.2391L86.0319 37.0618C86.617 38.3546 88.0213 40 90.4787 40C93.0532 40 95.1596 38.4722 95.1596 34.8288V25.8968H93.0532V26.7195ZM90.4787 33.6536C88.9575 33.6536 87.6702 32.3608 87.6702 30.5978C87.6702 28.8349 88.9575 27.5421 90.4787 27.5421C92 27.5421 93.1702 28.8349 93.1702 30.5978C93.1702 32.3608 92 33.6536 90.4787 33.6536ZM119.032 20.608H113.766V35.2989H115.989V29.7752H119.032C121.489 29.7752 123.83 28.0123 123.83 25.1916C123.83 22.371 121.489 20.608 119.032 20.608ZM119.149 27.6597H115.989V22.606H119.149C120.787 22.606 121.723 24.0163 121.723 25.0741C121.606 26.3669 120.67 27.6597 119.149 27.6597ZM132.606 25.5442C130.968 25.5442 129.33 26.2493 128.745 27.7772L130.734 28.5999C131.202 27.7772 131.904 27.5421 132.723 27.5421C133.894 27.5421 134.947 28.2473 135.064 29.4226V29.5401C134.713 29.305 133.777 28.9525 132.84 28.9525C130.734 28.9525 128.628 30.1277 128.628 32.2432C128.628 34.2412 130.383 35.534 132.255 35.534C133.777 35.534 134.479 34.8288 135.064 34.1237H135.181V35.2989H137.287V29.6576C137.053 27.072 135.064 25.5442 132.606 25.5442ZM132.372 33.6536C131.67 33.6536 130.617 33.301 130.617 32.3608C130.617 31.1855 131.904 30.8329 132.957 30.8329C133.894 30.8329 134.362 31.068 134.947 31.303C134.713 32.7133 133.543 33.6536 132.372 33.6536ZM144.66 25.8968L142.202 32.2432H142.085L139.511 25.8968H137.17L141.032 34.8288L138.809 39.765H141.032L147 25.8968H144.66ZM125 35.2989H127.223V20.608H125V35.2989Z" fill="white"/>
<rect opacity="0.08" x="163" y="8" width="1" height="32" fill="white"/>
<path d="M184.5 31.5V31.515M184.5 16.5V16.515M199.5 16.5V16.515M199.5 27H195V31.5M204 27V27.015M195 36H199.5M199.5 31.5H204V36M180 13.5C180 13.1022 180.158 12.7206 180.439 12.4393C180.721 12.158 181.102 12 181.5 12H187.5C187.898 12 188.279 12.158 188.561 12.4393C188.842 12.7206 189 13.1022 189 13.5V19.5C189 19.8978 188.842 20.2794 188.561 20.5607C188.279 20.842 187.898 21 187.5 21H181.5C181.102 21 180.721 20.842 180.439 20.5607C180.158 20.2794 180 19.8978 180 19.5V13.5ZM195 13.5C195 13.1022 195.158 12.7206 195.439 12.4393C195.721 12.158 196.102 12 196.5 12H202.5C202.898 12 203.279 12.158 203.561 12.4393C203.842 12.7206 204 13.1022 204 13.5V19.5C204 19.8978 203.842 20.2794 203.561 20.5607C203.279 20.842 202.898 21 202.5 21H196.5C196.102 21 195.721 20.842 195.439 20.5607C195.158 20.2794 195 19.8978 195 19.5V13.5ZM180 28.5C180 28.1022 180.158 27.7206 180.439 27.4393C180.721 27.158 181.102 27 181.5 27H187.5C187.898 27 188.279 27.158 188.561 27.4393C188.842 27.7206 189 28.1022 189 28.5V34.5C189 34.8978 188.842 35.2794 188.561 35.5607C188.279 35.842 187.898 36 187.5 36H181.5C181.102 36 180.721 35.842 180.439 35.5607C180.158 35.2794 180 34.8978 180 34.5V28.5Z" stroke="white" stroke-width="1.5" stroke-linecap="round" stroke-linejoin="round"/>
</svg>
